<svg  width="100%" height="60" xmlns="http://www.w3.org/2000/svg">
        <g >
          <g vector-effect="non-scaling-stroke">
            <path d="M0 52.5301204819277,L8.3 56.024096385542165,L16.6 53.614457831325296,L24.900000000000002 52.16867469879518,L33.2 53.614457831325296,L41.5 53.01204819277108,L49.8 56.26506024096385,L58.099999999999994 46.74698795180723,L66.39999999999999 52.77108433734939,L74.69999999999999 47.34939759036144,L82.99999999999999 36.74698795180723,L91.29999999999998 45.903614457831324,L99.59999999999998 35.3012048192771,L107.89999999999998 47.71084337349397,L116.19999999999997 49.63855421686747,L124.49999999999997 49.99999999999999,L132.79999999999998 45.421686746987945,L141.1 34.81927710843373,L149.4 29.277108433734938,L157.70000000000002 45.903614457831324,L166.00000000000003 48.433734939759034,L174.30000000000004 55.90361445783132,L182.60000000000005 53.37349397590361,L190.90000000000006 48.795180722891565,L199.20000000000007 41.084337349397586,L207.50000000000009 47.34939759036144,L215.8000000000001 50.48192771084337,L224.1000000000001 49.87951807228915,L232.40000000000012 48.554216867469876,L240.70000000000013 36.14457831325301,L249.00000000000014 47.10843373493975,L257.3000000000001 47.71084337349397,L265.60000000000014 48.795180722891565,L273.90000000000015 46.74698795180723,L282.20000000000016 44.4578313253012,L290.50000000000017 53.37349397590361,L298.8000000000002 50.843373493975896,L307.1000000000002 46.86746987951807,L315.4000000000002 49.03614457831325,L323.7000000000002 43.373493975903614,L332.0000000000002 22.771084337349397,L340.30000000000024 34.69879518072289,L348.60000000000025 38.192771084337345,L356.90000000000026 52.5301204819277,L365.2000000000003 47.71084337349397,L373.5000000000003 45.662650602409634,L381.8000000000003 50.722891566265055,L390.1000000000003 46.14457831325301,L398.4000000000003 50.722891566265055,L406.70000000000033 49.63855421686747,L415.00000000000034 53.37349397590361,L423.30000000000035 48.433734939759034,L431.60000000000036 44.69879518072289,L439.9000000000004 45.662650602409634,L448.2000000000004 40.48192771084337,L456.5000000000004 45.662650602409634,L464.8000000000004 49.87951807228915,L473.1000000000004 46.14457831325301,L481.40000000000043 47.10843373493975,L489.70000000000044 46.50602409638554,L498.00000000000045 49.15662650602409,L506.30000000000047 52.28915662650602,L514.6000000000005 49.39759036144578,L522.9000000000004 37.59036144578313,L531.2000000000004 35.06024096385542,L539.5000000000003 49.15662650602409,L547.8000000000003 52.77108433734939,L556.1000000000003 45.421686746987945,L564.4000000000002 40.24096385542168,L572.7000000000002 48.795180722891565,L581.0000000000001 48.192771084337345,L589.3000000000001 54.21686746987951,L597.6 53.73493975903614,L605.9 48.795180722891565,L614.1999999999999 49.39759036144578,L622.4999999999999 51.084337349397586,L630.7999999999998 33.97590361445783,L639.0999999999998 20.481927710843372,L647.3999999999997 45.06024096385542,L655.6999999999997 42.16867469879518,L663.9999999999997 7.228915662650602,L672.2999999999996 2.4096385542168672,L680.5999999999996 14.69879518072289,L688.8999999999995 24.819277108433734,L697.1999999999995 33.373493975903614,L705.4999999999994 34.21686746987952,L713.7999999999994 33.97590361445783,L722.0999999999993 42.77108433734939,L730.3999999999993 46.74698795180723,L738.6999999999992 49.15662650602409,L746.9999999999992 28.19277108433735,L755.2999999999992 48.433734939759034,L763.5999999999991 45.421686746987945,L771.8999999999991 46.86746987951807,L780.199999999999 44.69879518072289,L788.499999999999 45.3012048192771,L796.7999999999989 52.16867469879518,L805.0999999999989 50.48192771084337,L813.3999999999988 49.39759036144578,L821.6999999999988 45.06024096385542,L829.9999999999987 41.68674698795181,L838.2999999999987 27.831325301204817,L846.5999999999987 42.40963855421686,L854.8999999999986 38.433734939759034,L863.1999999999986 41.92771084337349,L871.4999999999985 50.843373493975896,L879.7999999999985 53.37349397590361,L888.0999999999984 48.554216867469876,L896.3999999999984 30.72289156626506,L904.6999999999983 34.4578313253012,L912.9999999999983 36.50602409638554,L921.2999999999982 46.86746987951807" stroke="#3DC23F" stroke-linejoin="round" vector-effect="non-scaling-stroke" fill="none" stroke-width="1.2px"></path>
            <circle cx="0" cy="463" data-val="37" r="5" stroke="#3DC23F" stroke-width="2" fill="#262f41"></circle><circle cx="8.3" cy="480" data-val="20" r="5" stroke="#3DC23F" stroke-width="2" fill="#262f41"></circle><circle cx="16.6" cy="468" data-val="32" r="5" stroke="#3DC23F" stroke-width="2" fill="#262f41"></circle><circle cx="24.900000000000002" cy="461" data-val="39" r="5" stroke="#3DC23F" stroke-width="2" fill="#262f41"></circle><circle cx="33.2" cy="468" data-val="32" r="5" stroke="#3DC23F" stroke-width="2" fill="#262f41"></circle><circle cx="41.5" cy="465" data-val="35" r="5" stroke="#3DC23F" stroke-width="2" fill="#262f41"></circle><circle cx="49.8" cy="481" data-val="19" r="5" stroke="#3DC23F" stroke-width="2" fill="#262f41"></circle><circle cx="58.099999999999994" cy="435" data-val="65" r="5" stroke="#3DC23F" stroke-width="2" fill="#262f41"></circle><circle cx="66.39999999999999" cy="464" data-val="36" r="5" stroke="#3DC23F" stroke-width="2" fill="#262f41"></circle><circle cx="74.69999999999999" cy="438" data-val="62" r="5" stroke="#3DC23F" stroke-width="2" fill="#262f41"></circle><circle cx="82.99999999999999" cy="387" data-val="113" r="5" stroke="#3DC23F" stroke-width="2" fill="#262f41"></circle><circle cx="91.29999999999998" cy="431" data-val="69" r="5" stroke="#3DC23F" stroke-width="2" fill="#262f41"></circle><circle cx="99.59999999999998" cy="380" data-val="120" r="5" stroke="#3DC23F" stroke-width="2" fill="#262f41"></circle><circle cx="107.89999999999998" cy="440" data-val="60" r="5" stroke="#3DC23F" stroke-width="2" fill="#262f41"></circle><circle cx="116.19999999999997" cy="449" data-val="51" r="5" stroke="#3DC23F" stroke-width="2" fill="#262f41"></circle><circle cx="124.49999999999997" cy="451" data-val="49" r="5" stroke="#3DC23F" stroke-width="2" fill="#262f41"></circle><circle cx="132.79999999999998" cy="429" data-val="71" r="5" stroke="#3DC23F" stroke-width="2" fill="#262f41"></circle><circle cx="141.1" cy="378" data-val="122" r="5" stroke="#3DC23F" stroke-width="2" fill="#262f41"></circle><circle cx="149.4" cy="351" data-val="149" r="5" stroke="#3DC23F" stroke-width="2" fill="#262f41"></circle><circle cx="157.70000000000002" cy="431" data-val="69" r="5" stroke="#3DC23F" stroke-width="2" fill="#262f41"></circle><circle cx="166.00000000000003" cy="443" data-val="57" r="5" stroke="#3DC23F" stroke-width="2" fill="#262f41"></circle><circle cx="174.30000000000004" cy="479" data-val="21" r="5" stroke="#3DC23F" stroke-width="2" fill="#262f41"></circle><circle cx="182.60000000000005" cy="467" data-val="33" r="5" stroke="#3DC23F" stroke-width="2" fill="#262f41"></circle><circle cx="190.90000000000006" cy="445" data-val="55" r="5" stroke="#3DC23F" stroke-width="2" fill="#262f41"></circle><circle cx="199.20000000000007" cy="408" data-val="92" r="5" stroke="#3DC23F" stroke-width="2" fill="#262f41"></circle><circle cx="207.50000000000009" cy="438" data-val="62" r="5" stroke="#3DC23F" stroke-width="2" fill="#262f41"></circle><circle cx="215.8000000000001" cy="453" data-val="47" r="5" stroke="#3DC23F" stroke-width="2" fill="#262f41"></circle><circle cx="224.1000000000001" cy="450" data-val="50" r="5" stroke="#3DC23F" stroke-width="2" fill="#262f41"></circle><circle cx="232.40000000000012" cy="444" data-val="56" r="5" stroke="#3DC23F" stroke-width="2" fill="#262f41"></circle><circle cx="240.70000000000013" cy="384" data-val="116" r="5" stroke="#3DC23F" stroke-width="2" fill="#262f41"></circle><circle cx="249.00000000000014" cy="437" data-val="63" r="5" stroke="#3DC23F" stroke-width="2" fill="#262f41"></circle><circle cx="257.3000000000001" cy="440" data-val="60" r="5" stroke="#3DC23F" stroke-width="2" fill="#262f41"></circle><circle cx="265.60000000000014" cy="445" data-val="55" r="5" stroke="#3DC23F" stroke-width="2" fill="#262f41"></circle><circle cx="273.90000000000015" cy="435" data-val="65" r="5" stroke="#3DC23F" stroke-width="2" fill="#262f41"></circle><circle cx="282.20000000000016" cy="424" data-val="76" r="5" stroke="#3DC23F" stroke-width="2" fill="#262f41"></circle><circle cx="290.50000000000017" cy="467" data-val="33" r="5" stroke="#3DC23F" stroke-width="2" fill="#262f41"></circle><circle cx="298.8000000000002" cy="455" data-val="45" r="5" stroke="#3DC23F" stroke-width="2" fill="#262f41"></circle><circle cx="307.1000000000002" cy="436" data-val="64" r="5" stroke="#3DC23F" stroke-width="2" fill="#262f41"></circle><circle cx="315.4000000000002" cy="446" data-val="54" r="5" stroke="#3DC23F" stroke-width="2" fill="#262f41"></circle><circle cx="323.7000000000002" cy="419" data-val="81" r="5" stroke="#3DC23F" stroke-width="2" fill="#262f41"></circle><circle cx="332.0000000000002" cy="320" data-val="180" r="5" stroke="#3DC23F" stroke-width="2" fill="#262f41"></circle><circle cx="340.30000000000024" cy="377" data-val="123" r="5" stroke="#3DC23F" stroke-width="2" fill="#262f41"></circle><circle cx="348.60000000000025" cy="394" data-val="106" r="5" stroke="#3DC23F" stroke-width="2" fill="#262f41"></circle><circle cx="356.90000000000026" cy="463" data-val="37" r="5" stroke="#3DC23F" stroke-width="2" fill="#262f41"></circle><circle cx="365.2000000000003" cy="440" data-val="60" r="5" stroke="#3DC23F" stroke-width="2" fill="#262f41"></circle><circle cx="373.5000000000003" cy="430" data-val="70" r="5" stroke="#3DC23F" stroke-width="2" fill="#262f41"></circle><circle cx="381.8000000000003" cy="454" data-val="46" r="5" stroke="#3DC23F" stroke-width="2" fill="#262f41"></circle><circle cx="390.1000000000003" cy="432" data-val="68" r="5" stroke="#3DC23F" stroke-width="2" fill="#262f41"></circle><circle cx="398.4000000000003" cy="454" data-val="46" r="5" stroke="#3DC23F" stroke-width="2" fill="#262f41"></circle><circle cx="406.70000000000033" cy="449" data-val="51" r="5" stroke="#3DC23F" stroke-width="2" fill="#262f41"></circle><circle cx="415.00000000000034" cy="467" data-val="33" r="5" stroke="#3DC23F" stroke-width="2" fill="#262f41"></circle><circle cx="423.30000000000035" cy="443" data-val="57" r="5" stroke="#3DC23F" stroke-width="2" fill="#262f41"></circle><circle cx="431.60000000000036" cy="425" data-val="75" r="5" stroke="#3DC23F" stroke-width="2" fill="#262f41"></circle><circle cx="439.9000000000004" cy="430" data-val="70" r="5" stroke="#3DC23F" stroke-width="2" fill="#262f41"></circle><circle cx="448.2000000000004" cy="405" data-val="95" r="5" stroke="#3DC23F" stroke-width="2" fill="#262f41"></circle><circle cx="456.5000000000004" cy="430" data-val="70" r="5" stroke="#3DC23F" stroke-width="2" fill="#262f41"></circle><circle cx="464.8000000000004" cy="450" data-val="50" r="5" stroke="#3DC23F" stroke-width="2" fill="#262f41"></circle><circle cx="473.1000000000004" cy="432" data-val="68" r="5" stroke="#3DC23F" stroke-width="2" fill="#262f41"></circle><circle cx="481.40000000000043" cy="437" data-val="63" r="5" stroke="#3DC23F" stroke-width="2" fill="#262f41"></circle><circle cx="489.70000000000044" cy="434" data-val="66" r="5" stroke="#3DC23F" stroke-width="2" fill="#262f41"></circle><circle cx="498.00000000000045" cy="447" data-val="53" r="5" stroke="#3DC23F" stroke-width="2" fill="#262f41"></circle><circle cx="506.30000000000047" cy="462" data-val="38" r="5" stroke="#3DC23F" stroke-width="2" fill="#262f41"></circle><circle cx="514.6000000000005" cy="448" data-val="52" r="5" stroke="#3DC23F" stroke-width="2" fill="#262f41"></circle><circle cx="522.9000000000004" cy="391" data-val="109" r="5" stroke="#3DC23F" stroke-width="2" fill="#262f41"></circle><circle cx="531.2000000000004" cy="379" data-val="121" r="5" stroke="#3DC23F" stroke-width="2" fill="#262f41"></circle><circle cx="539.5000000000003" cy="447" data-val="53" r="5" stroke="#3DC23F" stroke-width="2" fill="#262f41"></circle><circle cx="547.8000000000003" cy="464" data-val="36" r="5" stroke="#3DC23F" stroke-width="2" fill="#262f41"></circle><circle cx="556.1000000000003" cy="429" data-val="71" r="5" stroke="#3DC23F" stroke-width="2" fill="#262f41"></circle><circle cx="564.4000000000002" cy="404" data-val="96" r="5" stroke="#3DC23F" stroke-width="2" fill="#262f41"></circle><circle cx="572.7000000000002" cy="445" data-val="55" r="5" stroke="#3DC23F" stroke-width="2" fill="#262f41"></circle><circle cx="581.0000000000001" cy="442" data-val="58" r="5" stroke="#3DC23F" stroke-width="2" fill="#262f41"></circle><circle cx="589.3000000000001" cy="471" data-val="29" r="5" stroke="#3DC23F" stroke-width="2" fill="#262f41"></circle><circle cx="597.6" cy="469" data-val="31" r="5" stroke="#3DC23F" stroke-width="2" fill="#262f41"></circle><circle cx="605.9" cy="445" data-val="55" r="5" stroke="#3DC23F" stroke-width="2" fill="#262f41"></circle><circle cx="614.1999999999999" cy="448" data-val="52" r="5" stroke="#3DC23F" stroke-width="2" fill="#262f41"></circle><circle cx="622.4999999999999" cy="456" data-val="44" r="5" stroke="#3DC23F" stroke-width="2" fill="#262f41"></circle><circle cx="630.7999999999998" cy="374" data-val="126" r="5" stroke="#3DC23F" stroke-width="2" fill="#262f41"></circle><circle cx="639.0999999999998" cy="309" data-val="191" r="5" stroke="#3DC23F" stroke-width="2" fill="#262f41"></circle><circle cx="647.3999999999997" cy="427" data-val="73" r="5" stroke="#3DC23F" stroke-width="2" fill="#262f41"></circle><circle cx="655.6999999999997" cy="413" data-val="87" r="5" stroke="#3DC23F" stroke-width="2" fill="#262f41"></circle><circle cx="663.9999999999997" cy="245" data-val="255" r="5" stroke="#3DC23F" stroke-width="2" fill="#262f41"></circle><circle cx="672.2999999999996" cy="222" data-val="278" r="5" stroke="#3DC23F" stroke-width="2" fill="#262f41"></circle><circle cx="680.5999999999996" cy="281" data-val="219" r="5" stroke="#3DC23F" stroke-width="2" fill="#262f41"></circle><circle cx="688.8999999999995" cy="330" data-val="170" r="5" stroke="#3DC23F" stroke-width="2" fill="#262f41"></circle><circle cx="697.1999999999995" cy="371" data-val="129" r="5" stroke="#3DC23F" stroke-width="2" fill="#262f41"></circle><circle cx="705.4999999999994" cy="375" data-val="125" r="5" stroke="#3DC23F" stroke-width="2" fill="#262f41"></circle><circle cx="713.7999999999994" cy="374" data-val="126" r="5" stroke="#3DC23F" stroke-width="2" fill="#262f41"></circle><circle cx="722.0999999999993" cy="416" data-val="84" r="5" stroke="#3DC23F" stroke-width="2" fill="#262f41"></circle><circle cx="730.3999999999993" cy="435" data-val="65" r="5" stroke="#3DC23F" stroke-width="2" fill="#262f41"></circle><circle cx="738.6999999999992" cy="447" data-val="53" r="5" stroke="#3DC23F" stroke-width="2" fill="#262f41"></circle><circle cx="746.9999999999992" cy="346" data-val="154" r="5" stroke="#3DC23F" stroke-width="2" fill="#262f41"></circle><circle cx="755.2999999999992" cy="443" data-val="57" r="5" stroke="#3DC23F" stroke-width="2" fill="#262f41"></circle><circle cx="763.5999999999991" cy="429" data-val="71" r="5" stroke="#3DC23F" stroke-width="2" fill="#262f41"></circle><circle cx="771.8999999999991" cy="436" data-val="64" r="5" stroke="#3DC23F" stroke-width="2" fill="#262f41"></circle><circle cx="780.199999999999" cy="425" data-val="75" r="5" stroke="#3DC23F" stroke-width="2" fill="#262f41"></circle><circle cx="788.499999999999" cy="428" data-val="72" r="5" stroke="#3DC23F" stroke-width="2" fill="#262f41"></circle><circle cx="796.7999999999989" cy="461" data-val="39" r="5" stroke="#3DC23F" stroke-width="2" fill="#262f41"></circle><circle cx="805.0999999999989" cy="453" data-val="47" r="5" stroke="#3DC23F" stroke-width="2" fill="#262f41"></circle><circle cx="813.3999999999988" cy="448" data-val="52" r="5" stroke="#3DC23F" stroke-width="2" fill="#262f41"></circle><circle cx="821.6999999999988" cy="427" data-val="73" r="5" stroke="#3DC23F" stroke-width="2" fill="#262f41"></circle><circle cx="829.9999999999987" cy="411" data-val="89" r="5" stroke="#3DC23F" stroke-width="2" fill="#262f41"></circle><circle cx="838.2999999999987" cy="344" data-val="156" r="5" stroke="#3DC23F" stroke-width="2" fill="#262f41"></circle><circle cx="846.5999999999987" cy="414" data-val="86" r="5" stroke="#3DC23F" stroke-width="2" fill="#262f41"></circle><circle cx="854.8999999999986" cy="395" data-val="105" r="5" stroke="#3DC23F" stroke-width="2" fill="#262f41"></circle><circle cx="863.1999999999986" cy="412" data-val="88" r="5" stroke="#3DC23F" stroke-width="2" fill="#262f41"></circle><circle cx="871.4999999999985" cy="455" data-val="45" r="5" stroke="#3DC23F" stroke-width="2" fill="#262f41"></circle><circle cx="879.7999999999985" cy="467" data-val="33" r="5" stroke="#3DC23F" stroke-width="2" fill="#262f41"></circle><circle cx="888.0999999999984" cy="444" data-val="56" r="5" stroke="#3DC23F" stroke-width="2" fill="#262f41"></circle><circle cx="896.3999999999984" cy="358" data-val="142" r="5" stroke="#3DC23F" stroke-width="2" fill="#262f41"></circle><circle cx="904.6999999999983" cy="376" data-val="124" r="5" stroke="#3DC23F" stroke-width="2" fill="#262f41"></circle><circle cx="912.9999999999983" cy="386" data-val="114" r="5" stroke="#3DC23F" stroke-width="2" fill="#262f41"></circle><circle cx="921.2999999999982" cy="436" data-val="64" r="5" stroke="#3DC23F" stroke-width="2" fill="#262f41"></circle>
          </g>
      
        
          <g vector-effect="non-scaling-stroke">
            <path d="M0 55.662650602409634,L8.3 57.71084337349397,L16.6 53.97590361445783,L24.900000000000002 51.92771084337349,L33.2 53.37349397590361,L41.5 55.421686746987945,L49.8 56.50602409638554,L58.099999999999994 51.6867469879518,L66.39999999999999 50.843373493975896,L74.69999999999999 45.903614457831324,L82.99999999999999 48.433734939759034,L91.29999999999998 47.59036144578313,L99.59999999999998 45.662650602409634,L107.89999999999998 50.48192771084337,L116.19999999999997 53.73493975903614,L124.49999999999997 53.132530120481924,L132.79999999999998 51.92771084337349,L141.1 48.795180722891565,L149.4 54.57831325301204,L157.70000000000002 48.433734939759034,L166.00000000000003 50.24096385542168,L174.30000000000004 53.614457831325296,L182.60000000000005 51.92771084337349,L190.90000000000006 49.99999999999999,L199.20000000000007 49.03614457831325,L207.50000000000009 49.99999999999999,L215.8000000000001 53.132530120481924,L224.1000000000001 49.63855421686747,L232.40000000000012 49.63855421686747,L240.70000000000013 49.63855421686747,L249.00000000000014 46.50602409638554,L257.3000000000001 49.63855421686747,L265.60000000000014 40.722891566265055,L273.90000000000015 47.71084337349397,L282.20000000000016 46.86746987951807,L290.50000000000017 54.4578313253012,L298.8000000000002 51.084337349397586,L307.1000000000002 40.24096385542168,L315.4000000000002 49.99999999999999,L323.7000000000002 45.06024096385542,L332.0000000000002 53.97590361445783,L340.30000000000024 41.92771084337349,L348.60000000000025 47.10843373493975,L356.90000000000026 51.44578313253012,L365.2000000000003 48.554216867469876,L373.5000000000003 46.26506024096385,L381.8000000000003 49.39759036144578,L390.1000000000003 46.26506024096385,L398.4000000000003 53.01204819277108,L406.70000000000033 47.59036144578313,L415.00000000000034 51.92771084337349,L423.30000000000035 48.795180722891565,L431.60000000000036 47.10843373493975,L439.9000000000004 47.59036144578313,L448.2000000000004 38.433734939759034,L456.5000000000004 47.95180722891566,L464.8000000000004 49.63855421686747,L473.1000000000004 44.4578313253012,L481.40000000000043 47.10843373493975,L489.70000000000044 48.433734939759034,L498.00000000000045 50.48192771084337,L506.30000000000047 48.554216867469876,L514.6000000000005 49.63855421686747,L522.9000000000004 39.87951807228915,L531.2000000000004 38.795180722891565,L539.5000000000003 47.34939759036144,L547.8000000000003 49.03614457831325,L556.1000000000003 38.554216867469876,L564.4000000000002 50.24096385542168,L572.7000000000002 51.6867469879518,L581.0000000000001 51.6867469879518,L589.3000000000001 52.5301204819277,L597.6 53.97590361445783,L605.9 54.4578313253012,L614.1999999999999 54.81927710843373,L622.4999999999999 52.5301204819277,L630.7999999999998 46.74698795180723,L639.0999999999998 42.40963855421686,L647.3999999999997 45.662650602409634,L655.6999999999997 43.373493975903614,L663.9999999999997 49.03614457831325,L672.2999999999996 44.81927710843373,L680.5999999999996 45.662650602409634,L688.8999999999995 49.87951807228915,L697.1999999999995 44.81927710843373,L705.4999999999994 43.855421686746986,L713.7999999999994 42.53012048192771,L722.0999999999993 47.34939759036144,L730.3999999999993 52.77108433734939,L738.6999999999992 50.722891566265055,L746.9999999999992 46.14457831325301,L755.2999999999992 51.325301204819276,L763.5999999999991 46.50602409638554,L771.8999999999991 49.87951807228915,L780.199999999999 54.4578313253012,L788.499999999999 46.50602409638554,L796.7999999999989 52.16867469879518,L805.0999999999989 55.421686746987945,L813.3999999999988 47.10843373493975,L821.6999999999988 44.81927710843373,L829.9999999999987 43.01204819277108,L838.2999999999987 46.50602409638554,L846.5999999999987 51.92771084337349,L854.8999999999986 47.71084337349397,L863.1999999999986 54.21686746987951,L871.4999999999985 52.77108433734939,L879.7999999999985 54.57831325301204,L888.0999999999984 49.03614457831325,L896.3999999999984 41.68674698795181,L904.6999999999983 49.87951807228915,L912.9999999999983 45.06024096385542,L921.2999999999982 49.39759036144578" stroke="#F34C44" stroke-linejoin="round" vector-effect="non-scaling-stroke" fill="none" stroke-width="1.2px"></path>
            undefined
          </g>
      
        </g> 
      </svg>